<svg id="Capa_1" enable-background="new 0 0 512 512" height="512" viewBox="0 0 512 512" width="512" xmlns="http://www.w3.org/2000/svg"><g><g><path clip-rule="evenodd" d="m41.227 154.692v121.689h429.571v-121.689l-214.8-124.014z" fill="#eceaec" fill-rule="evenodd"/></g><g><path clip-rule="evenodd" d="m10.132 169.913c5.414 9.382 17.489 12.614 26.871 7.2l4.223-2.438 214.772-124.013 214.8 124.013 4.223 2.438c9.354 5.414 21.457 2.183 26.843-7.2 5.414-9.354 2.183-21.458-7.2-26.872l-227.866-131.553c-3.118-1.814-6.945-2.693-10.8-2.693-3.827 0-7.682.879-10.799 2.693l-227.867 131.553c-9.354 5.415-12.614 17.518-7.2 26.872z" fill="#9fd4fe" fill-rule="evenodd"/></g><g><path clip-rule="evenodd" d="m35.331 313.004h107.967 58.703 107.995 58.703 107.995 23.215c2.523 0 4.592-2.069 4.592-4.592v-27.439c0-2.523-2.069-4.592-4.592-4.592h-29.11-429.572-29.11c-2.523 0-4.592 2.069-4.592 4.592v27.439c0 2.523 2.069 4.592 4.592 4.592z" fill="#9fd4fe" fill-rule="evenodd"/></g><g><path clip-rule="evenodd" d="m56.306 345.715h66.016 16.525c2.438 0 4.45-2.013 4.45-4.45v-28.261h-107.966v28.261c0 2.438 2.013 4.45 4.45 4.45z" fill="#eceaec" fill-rule="evenodd"/></g><g><path clip-rule="evenodd" d="m223.004 345.715h65.988 16.525c2.466 0 4.479-2.013 4.479-4.45v-28.261h-107.995v28.261c0 2.438 2.013 4.45 4.479 4.45z" fill="#eceaec" fill-rule="evenodd"/></g><g><path clip-rule="evenodd" d="m373.177 345.715h16.525 65.988 16.525c2.466 0 4.479-2.013 4.479-4.45v-28.261h-107.996v28.261c0 2.437 2.013 4.45 4.479 4.45z" fill="#eceaec" fill-rule="evenodd"/></g><g><path clip-rule="evenodd" d="m389.702 345.715h65.988v88.156h-65.988z" fill="#ffe07d" fill-rule="evenodd"/></g><g><path clip-rule="evenodd" d="m223.004 345.715h65.988v88.156h-65.988z" fill="#ffe07d" fill-rule="evenodd"/></g><g><path clip-rule="evenodd" d="m56.306 345.715h66.016v88.156h-66.016z" fill="#ffe07d" fill-rule="evenodd"/></g><g><path clip-rule="evenodd" d="m35.331 466.582h107.967v-28.233c0-2.466-2.013-4.479-4.45-4.479h-16.525-66.017-16.525c-2.438 0-4.45 2.013-4.45 4.479z" fill="#eceaec" fill-rule="evenodd"/></g><g><path clip-rule="evenodd" d="m368.698 466.582h107.995v-28.233c0-2.466-2.013-4.479-4.479-4.479h-16.524-65.988-16.525c-2.466 0-4.479 2.013-4.479 4.479z" fill="#eceaec" fill-rule="evenodd"/></g><g><path clip-rule="evenodd" d="m202.001 466.582h107.995v-28.233c0-2.466-2.013-4.479-4.479-4.479h-16.525-65.988-16.525c-2.466 0-4.479 2.013-4.479 4.479v28.233z" fill="#eceaec" fill-rule="evenodd"/></g><g><path clip-rule="evenodd" d="m12.116 503.205h487.792c2.523 0 4.592-2.069 4.592-4.592v-27.439c0-2.523-2.069-4.592-4.592-4.592h-23.215-107.995-58.703-107.994-58.703-107.967-23.215c-2.523 0-4.592 2.069-4.592 4.592v27.439c0 2.523 2.07 4.592 4.592 4.592z" fill="#9fd4fe" fill-rule="evenodd"/></g><g><path clip-rule="evenodd" d="m233.095 119.004c0 13.266 10.743 24.009 24.008 24.009 13.237 0 24.008-10.743 24.008-24.009s-10.771-24.009-24.008-24.009c-13.265 0-24.008 10.743-24.008 24.009z" fill="#ffe07d" fill-rule="evenodd"/></g><g><path clip-rule="evenodd" d="m122.322 345.715v88.156h16.525c2.438 0 4.45 2.013 4.45 4.479v28.233h58.703v-28.233c0-2.466 2.013-4.479 4.479-4.479h16.525v-88.156h-16.525c-2.466 0-4.479-2.013-4.479-4.45v-28.261h-58.703v28.261c0 2.438-2.013 4.45-4.45 4.45z" fill="#b6b1b7" fill-rule="evenodd"/></g><g><path clip-rule="evenodd" d="m288.992 345.715v88.156h16.525c2.466 0 4.479 2.013 4.479 4.479v28.233h58.703v-28.233c0-2.466 2.013-4.479 4.479-4.479h16.525v-88.156h-16.525c-2.466 0-4.479-2.013-4.479-4.45v-28.261h-58.703v28.261c0 2.438-2.013 4.45-4.479 4.45z" fill="#b6b1b7" fill-rule="evenodd"/></g><g><path clip-rule="evenodd" d="m255.998 50.662-214.771 124.013v27.893l214.771-124.014 214.8 124.014v-27.893z" fill="#dad8db" fill-rule="evenodd"/></g><g><path clip-rule="evenodd" d="m257.104 94.995c-13.266 0-24.008 10.743-24.008 24.009 0 2.75.454 5.357 1.304 7.823 3.543-8.816 12.188-15.023 22.251-15.023 10.516 0 19.473 6.775 22.704 16.186 1.134-2.778 1.757-5.811 1.757-8.986 0-13.266-10.771-24.009-24.008-24.009z" fill="#ffc269" fill-rule="evenodd"/></g><g><path clip-rule="evenodd" d="m56.306 345.715h66.016v23.981h-66.016z" fill="#ffc269" fill-rule="evenodd"/></g><g><path clip-rule="evenodd" d="m223.004 345.715h65.988v23.981h-65.988z" fill="#ffc269" fill-rule="evenodd"/></g><g><path clip-rule="evenodd" d="m389.702 345.715h65.988v23.981h-65.988z" fill="#ffc269" fill-rule="evenodd"/></g><g><path clip-rule="evenodd" d="m35.331 313.004h107.967v17.546h-107.967z" fill="#dad8db" fill-rule="evenodd"/></g><g><path clip-rule="evenodd" d="m202.001 313.004h107.995v17.546h-107.995z" fill="#dad8db" fill-rule="evenodd"/></g><g><path clip-rule="evenodd" d="m368.698 313.004h107.995v17.546h-107.995z" fill="#dad8db" fill-rule="evenodd"/></g><g><path d="m472.215 353.215c6.604 0 11.978-5.361 11.978-11.95v-20.761h15.715c6.667 0 12.091-5.425 12.091-12.092v-27.439c0-6.667-5.425-12.092-12.091-12.092h-21.611v-82.438c2.116.527 4.285.805 6.471.805 2.374 0 4.766-.313 7.124-.947 7.024-1.887 12.876-6.381 16.462-12.631 3.623-6.26 4.583-13.578 2.703-20.606-1.881-7.032-6.372-12.898-12.644-16.517l-227.844-131.542c-4.172-2.427-9.211-3.71-14.571-3.71s-10.399 1.283-14.549 3.698l-227.874 131.557c-12.973 7.509-17.429 24.156-9.938 37.111 3.62 6.273 9.48 10.764 16.503 12.645 4.526 1.212 9.174 1.238 13.588.138v82.436h-21.611c-6.668 0-12.092 5.425-12.092 12.092v27.439c0 6.667 5.425 12.092 12.092 12.092h15.714v20.761c0 6.59 5.361 11.95 11.95 11.95h9.026v73.156h-9.026c-6.589 0-11.95 5.373-11.95 11.978v20.733h-15.714c-6.668 0-12.092 5.425-12.092 12.092v27.439c0 6.667 5.425 12.092 12.092 12.092h228.235c4.142 0 7.5-3.358 7.5-7.5s-3.357-7.5-7.5-7.5h-225.328v-21.623h481.976v21.623h-222.039c-4.142 0-7.5 3.358-7.5 7.5s3.357 7.5 7.5 7.5h224.947c6.667 0 12.091-5.425 12.091-12.092v-27.439c0-6.667-5.425-12.092-12.091-12.092h-15.715v-20.733c0-6.605-5.374-11.978-11.978-11.978h-9.025v-73.156h9.025zm-438.959-182.598c-2.806 1.618-6.084 2.044-9.236 1.2-3.149-.844-5.775-2.851-7.391-5.653-.002-.003-.003-.005-.005-.008-3.356-5.799-1.353-13.257 4.458-16.62l227.888-131.565c1.83-1.065 4.392-1.676 7.028-1.676 2.675 0 5.171.595 7.05 1.688l227.869 131.555c2.8 1.616 4.807 4.245 5.652 7.403.844 3.154.419 6.427-1.209 9.24-1.601 2.789-4.214 4.79-7.359 5.636-3.153.847-6.429.424-9.229-1.197l-219.024-126.453c-1.16-.67-2.455-1.005-3.75-1.005s-2.59.335-3.75 1.005zm-18.232 113.264h225.328c4.142 0 7.5-3.358 7.5-7.5s-3.357-7.5-7.5-7.5h-191.625v-89.877l207.271-119.682 207.3 119.683v89.876h-189.584c-4.142 0-7.5 3.358-7.5 7.5s3.357 7.5 7.5 7.5h223.286v21.623h-481.976zm194.476 54.334v-17.711h92.996v17.711zm71.992 15v73.156h-50.988v-73.156zm-238.661-15v-17.711h92.967v17.711zm71.992 15v73.156h-51.016v-73.156zm20.975 105.867h-92.967v-17.711h92.967zm58.702-20.733v20.733h-43.703v-20.733c0-6.605-5.36-11.978-11.95-11.978h-9.025v-73.156h9.025c6.59 0 11.95-5.361 11.95-11.95v-20.761h43.703v20.761c0 6.59 5.374 11.95 11.978 11.95h9.026v73.156h-9.026c-6.604 0-11.978 5.373-11.978 11.978zm107.996 20.733h-92.996v-17.711h92.996zm58.702-20.733v20.733h-43.703v-20.733c0-6.605-5.374-11.978-11.978-11.978h-9.025v-73.156h9.025c6.604 0 11.978-5.361 11.978-11.95v-20.761h43.703v20.761c0 6.59 5.374 11.95 11.979 11.95h9.025v73.156h-9.025c-6.605 0-11.979 5.373-11.979 11.978zm107.996 3.022v17.711h-92.996v-17.711zm-71.992-15v-73.156h50.988v73.156zm-21.004-88.156v-17.711h92.996v17.711z"/><path d="m288.611 119.004c0-17.374-14.134-31.509-31.508-31.509s-31.508 14.135-31.508 31.509 14.134 31.509 31.508 31.509 31.508-14.135 31.508-31.509zm-48.016 0c0-9.103 7.406-16.509 16.508-16.509s16.508 7.406 16.508 16.509-7.406 16.509-16.508 16.509-16.508-7.406-16.508-16.509z"/><g><path d="m165.535 205.254c2.058-3.236 3.268-7.063 3.268-11.174 0-11.525-9.377-20.902-20.902-20.902h-16.918c-4.143 0-7.5 3.358-7.5 7.5v26.819.043 31.381c0 1.995.795 3.908 2.209 5.315 1.405 1.4 3.308 2.185 5.291 2.185h.033s15.553-.069 19.84-.069c12.779 0 23.177-10.397 23.177-23.177-.001-7.213-3.315-13.666-8.498-17.921zm-17.635-17.075c3.255 0 5.902 2.647 5.902 5.902s-2.647 5.902-5.902 5.902c-1.237 0-9.418.016-9.418.016v-11.819h9.418zm2.955 43.174c-2.282 0-7.746.02-12.373.038v-16.381c1.105-.004 12.373-.012 12.373-.012 4.509 0 8.177 3.668 8.177 8.178 0 4.509-3.668 8.177-8.177 8.177z"/><path d="m226.077 178.849c-.025-.067-.052-.134-.078-.201-1.365-3.323-4.566-5.469-8.158-5.469-.002 0-.004 0-.005 0-3.595.002-6.797 2.153-8.159 5.479-.023.057-.046.114-.067.171l-21.87 57.423c-1.475 3.871.469 8.204 4.34 9.678 3.866 1.475 8.203-.468 9.678-4.339l3.607-9.471h24.786l3.566 9.45c1.133 3.003 3.987 4.854 7.018 4.854.88 0 1.775-.156 2.647-.485 3.875-1.463 5.831-5.79 4.368-9.665zm-15 38.272 6.737-17.688 6.675 17.688z"/><path d="m311.607 173.179c-.024 0-.05 0-.074 0-4.143.04-7.468 3.43-7.428 7.572l.337 34.778-26.935-39.003c-1.864-2.701-5.266-3.874-8.404-2.898-3.133.977-5.268 3.878-5.268 7.16v58.135c0 4.142 3.357 7.5 7.5 7.5s7.5-3.358 7.5-7.5v-34.076l25.638 37.125c2.193 3.171 5.86 4.521 9.337 3.434 3.547-1.107 5.839-4.422 5.839-8.518l-.544-56.281c-.04-4.118-3.389-7.428-7.498-7.428z"/><path d="m387.958 233.525-26.197-25.274 23.972-22.034c3.05-2.803 3.25-7.548.446-10.598-2.802-3.049-7.548-3.25-10.597-.446l-19.147 17.6v-12.823c0-4.142-3.357-7.5-7.5-7.5s-7.5 3.358-7.5 7.5v58.972c0 4.142 3.357 7.5 7.5 7.5s7.5-3.358 7.5-7.5v-14.968l21.109 20.366c1.455 1.404 3.332 2.103 5.206 2.103 1.965 0 3.927-.767 5.398-2.292 2.876-2.982 2.791-7.73-.19-10.606z"/></g></g></g></svg>